/* XPM */
static char *result[] = {
/* columns rows colors chars-per-pixel */
"35 35 111 2 ",
"   c #000204",
".  c #0B0404",
"X  c #04050A",
"o  c #08070A",
"O  c #07080D",
"+  c #0B090D",
"@  c #070611",
"#  c #090713",
"$  c #070911",
"%  c #0B0A14",
"&  c #0D0A1B",
"*  c #120E12",
"=  c #120D1E",
"-  c #161114",
";  c #191216",
":  c #15111A",
">  c #1D151C",
",  c #20171C",
"<  c #130D24",
"1  c #160F2B",
"2  c #0F1420",
"3  c #151022",
"4  c #191327",
"5  c #161329",
"6  c #1B132C",
"7  c #1B1432",
"8  c #1B1934",
"9  c #1E1439",
"0  c #251722",
"q  c #241923",
"w  c #23152E",
"e  c #251A2B",
"r  c #2C1E28",
"t  c #211631",
"y  c #261A33",
"u  c #291C34",
"i  c #23163E",
"p  c #251A3D",
"a  c #2B1D3F",
"s  c #1D263A",
"d  c #3F2524",
"f  c #3B252B",
"g  c #2C213E",
"h  c #4B2F35",
"j  c #231741",
"k  c #251A45",
"l  c #2D1E41",
"z  c #27194A",
"x  c #2C1C4B",
"c  c #2E1E54",
"v  c #301F50",
"b  c #2D224C",
"n  c #322041",
"m  c #3A2543",
"M  c #2E2354",
"N  c #312155",
"B  c #3C2753",
"V  c #33225C",
"C  c #3D265F",
"Z  c #332C5D",
"A  c #2B3451",
"S  c #2F3459",
"D  c #33345D",
"F  c #3F3659",
"G  c #362362",
"H  c #372C65",
"J  c #382D67",
"K  c #392D6A",
"L  c #353261",
"P  c #353962",
"I  c #3A346C",
"U  c #3B3C6D",
"Y  c #3D3D71",
"T  c #53354D",
"R  c #483D6D",
"E  c #394765",
"W  c #364568",
"Q  c #3E4273",
"!  c #3E4E74",
"~  c #794248",
"^  c #44466A",
"/  c #554060",
"(  c #4C4875",
")  c #474779",
"_  c #424B7A",
"`  c #43567E",
"'  c #565A7B",
"]  c #614363",
"[  c #724565",
"{  c #615374",
"}  c #6B5171",
"|  c #645A77",
" . c #AB2828",
".. c #9C4838",
"X. c #A95039",
"o. c #B16533",
"O. c #B86C31",
"+. c #CE5113",
"@. c #D26112",
"#. c #DA7812",
"$. c #8D3244",
"%. c #89494D",
"&. c #864654",
"*. c #85515D",
"=. c #D68B1A",
"-. c #465581",
";. c #475A83",
":. c #495C86",
">. c #476083",
",. c #4D698F",
"<. c #566A8E",
/* pixels */
"e D [  .{ s                                                           ",
"c Y :.[ ^ =                                                           ",
") I D L 6         X                         X   o                     ",
"<.J 4 *           @ < X                     + f *                     ",
"<.) v 7 $         < k 7 X                   % f *                     ",
"<.,.( ^ N 4 o     - l l u - +               .   O                     ",
"` | X.o./ :       + > , q , ; . .                                     ",
"` &.@.=.~ :     X + , e e l e o                       O %             ",
"W ' O.#.%.Z 8 * ; q a N G G M =                                       ",
"< g ..+.*.] k 4 y v N c G Y H w .                                     ",
"X : T $.} F # X @ 9 G G I ^ G V 7 X .                                 ",
"$ @ s >.E #     X = N v V J G K G 6 o       .                         ",
"    3 ! s         X > > e N H I U n -       .                         ",
"    @ 2 X           + , e e u V V n q ; o   . X                       ",
"                    ; r y q y V N C g ; +   + 4 #                     ",
"                    0 m N N G x x I g ; +         X                   ",
"                    X 4 k c N u V U H n 4                             ",
"                        o p V p V K Y :.U #                           ",
"                        = i G t 5 k M U k $                           ",
"                      X c K H x $ X X O                               ",
"                      & M -.;.L =                                     ",
"      $ o o         % x G ! ,.Y =                                     ",
"  .   * h *         w R Q I I H 3                                     ",
"  : o % ; %       < z G Q K I Y B w 4 i 6 & X                         ",
"% d , $       O @ 9 x M Y _ :._ R G G K R G p *                       ",
"O f - X       % $ & k c M ;.>.S z z G I K c c 4                       ",
"  & O o 3 $ X   5 5 c x 1 P A   X & v c t = p v < X & X               ",
"  ; > p V k $   7 9 z 9 5 S j =   X 4 t X   X = % X #                 ",
"  * q p 7 <     < < < @ X # < 9 @   X +               X               ",
"    o                 o +               # #           %               ",
"                      q q               1 z 6         X               ",
"                  X                     & t <       o                 ",
"                  < <                     1 k 9 < X                   ",
"                  @ %                     # c I J 9 X                 ",
"                                            1 G K b X                 "
};
