/* XPM */
static char *e8b18ec65d374f1dd4d2efae3b769901YkXpuG3oGjcw0GWc[] = {
/* columns rows colors chars-per-pixel */
"36 36 129 2 ",
"   c None",
".  c #070505",
"X  c #060606",
"o  c #070606",
"O  c #080607",
"+  c #080707",
"@  c #0A0909",
"#  c #0B0909",
"$  c #09090A",
"%  c #0B0A0A",
"&  c #0B0A0B",
"*  c #0C0A0A",
"=  c #0D0B0A",
"-  c #0C0A0B",
";  c #0C0B0B",
":  c #0D0B0B",
">  c #0E0B0B",
",  c #0E0C0B",
"<  c #0C0B0C",
"1  c #0D0B0C",
"2  c #0D0C0C",
"3  c #0E0C0C",
"4  c #0E0C0D",
"5  c #0F0D0D",
"6  c #100B0C",
"7  c #100D0D",
"8  c #110D0D",
"9  c #100E0E",
"0  c #100F0F",
"q  c #110F0F",
"w  c #150E0E",
"e  c #13100F",
"r  c #1E0E10",
"t  c #121010",
"y  c #131110",
"u  c #131213",
"i  c #161210",
"p  c #141213",
"a  c #151314",
"s  c #161516",
"d  c #171516",
"f  c #181412",
"g  c #181516",
"h  c #181617",
"j  c #191617",
"k  c #1C1715",
"l  c #1B1919",
"z  c #1C191B",
"x  c #1D1A1B",
"c  c #1D1B1C",
"v  c #1D1C1C",
"b  c #1E1C1E",
"n  c #1F1D1E",
"m  c #1F1D1F",
"M  c #201B19",
"N  c #231D19",
"B  c #211C1B",
"V  c #251E1A",
"C  c #261E1A",
"Z  c #271E1A",
"A  c #271F1B",
"S  c #201D1E",
"D  c #201D1F",
"F  c #211E1F",
"G  c #211F1F",
"H  c #281F1A",
"J  c #281F1B",
"K  c #2B211B",
"L  c #29201C",
"P  c #222021",
"I  c #252324",
"U  c #262324",
"Y  c #2C2622",
"T  c #292526",
"R  c #2A2526",
"E  c #2A2728",
"W  c #2F2A2B",
"Q  c #2E2B2C",
"!  c #2F2C2E",
"~  c #34302D",
"^  c #322F30",
"/  c #363233",
"(  c #363535",
")  c #393430",
"_  c #3D3A3B",
"`  c gray24",
"'  c #3E3E3E",
"]  c #3F3F3F",
"[  c #401019",
"{  c #600C18",
"}  c #424141",
"|  c #474646",
" . c #4D4C4C",
".. c #534F4F",
"X. c #515050",
"o. c #525050",
"O. c #555353",
"+. c #555454",
"@. c #585656",
"#. c #585758",
"$. c #5C5959",
"%. c #5D5B5A",
"&. c #5D5B5B",
"*. c #5F5C5C",
"=. c #5E5C5D",
"-. c #5F5F5E",
";. c #605E5E",
":. c #666160",
">. c #656262",
",. c #666362",
"<. c #676362",
"1. c #666363",
"2. c #686565",
"3. c #6C6868",
"4. c #706C6B",
"5. c #726E6C",
"6. c #736F6E",
"7. c #74706F",
"8. c #767271",
"9. c #7C7877",
"0. c #7E7979",
"q. c #A6142D",
"w. c #C10826",
"e. c #807B7A",
"r. c #827D7C",
"t. c #837E7D",
"y. c #847E7D",
"u. c #868180",
"i. c #898381",
/* pixels */
"                                                                        ",
"                                ` | o.+.@.&.:.5.7.                      ",
"                            ] ..&.;.1.3.9.e.i.                          ",
"                        (  .&.;.:.8.t.y.y.                              ",
"                      } O.;.2.6.0.u.e.                                  ",
"                    ` #.;.<...B R 5.                                    ",
"                    Y ) :._ . . & c                                     ",
"                        ~ z . r w :                                     ",
"                        f & 3 q.w.{                                     ",
"                          & 3 K r e                                     ",
"                        3 3 3 < & 3 B                                   ",
"                      3 3 3 3 3 3 3 e k A L                             ",
"                    3 3 3 3 3 3 3 3 & ; i A A K                         ",
"                  3 3 3 3 3 3 3 3 3 ; ;       A M c                     ",
"                3 3 3 3 3 3 3 3 3 < ; i         G m B A                 ",
"                3 3 3 3 3 3 3 : : 3 h P /     m I     J J A             ",
"                3 3 3 3 6 < < : q G W   Q   E ^           A A A         ",
"                3 3 3 3 3 < : t I ! E     R Q                 A A A     ",
"                3 3 3 3 3 : < c E P m                             A J   ",
"                3 3 3 : : q k G G E                                     ",
"                3 3 3 3 3 &   u c                                       ",
"                3 3 3 3 3 &   s q                                       ",
"                3 3 3 3 :   s k &                                       ",
"                3 3 3 3 3 3   a O                                       ",
"                  3 3 3 3 3                                             ",
"                  3 3 3 3 3                                             ",
"                  3 3 3 3 3 q                                           ",
"                  3 3 3 3 3 .                                           ",
"                    3 3 3 3                                             ",
"                  3 3 3 3 q                                             ",
"                    3 3 3                                               ",
"                    3 3 3                                               ",
"                      3 3                                               ",
"                      3 3                                               ",
"                      3 3                                               ",
"                      3 3                                               "
};
