/* XPM */
static char *_8bdcef8d02243949d0d09dfd609eb24iCrYL1CBcw2vmAdV[] = {
/* columns rows colors chars-per-pixel */
"36 36 6 1 ",
"  c None",
". c #10141F",
"X c #111621",
"o c #141C27",
"O c #151C27",
"+ c #151D28",
/* pixels */
"         ....                       ",
"          ......                    ",
"            ....                    ",
"            ......                  ",
"            ......                  ",
"              .....        .....    ",
"              .....      ......     ",
"               ....      .....      ",
"               ....    ......       ",
" .... ...       ...    ......       ",
".......... .    ...   .....         ",
"............     ..   .....         ",
"   .........      .. .....          ",
"     ........      ......           ",
"     ..........    ..         +++   ",
"        .......    ..          +++ +",
"          .....    ..           ++ +",
"           .....   ..      +++... ++",
"+++    ++      .. ...     ..+++.++++",
" +++ ++++      ..+++.   ++...+++++++",
"  ++ +++        ..+++ ++++....+++   ",
"                 ..++.+++++.++++++  ",
"  ++ ++           ..... .++.+++ ++++",
" +++ +++ +++    ++ ++.++++++++++++++",
"+++ +++++ +++ +++++++.++++++++++++++",
" +++ ++++++++++++ ++...+++++++++++ +",
"  ++ ++++++++++....  ...++   +++ ++ ",
"   ++   ++ +++++.... ...  ++++++++++",
" +++++++ ++++ +++... ....+++++++++++",
" +++ ++++++++. +++.......+++..+++..+",
"+++ ++++++++++ .+++++....++....+...+",
"+++++++++  ++++.++++++.++++.... ...+",
" ++++++o     +++++++++++++......++.+",
" ++++++X    ....+++++++++......+... ",
"+++++OO++    .... ++++    +...++.   ",
"+++++  +++    .. .++++  + +++..++   "
};
