/* XPM */
static char *_eb67a305ebf4091d9c6dff0ad4c45fd3rvVh3PbqHoFgzAx[] = {
/* columns rows colors chars-per-pixel */
"36 36 252 2 ",
"   c #104258",
".  c #114358",
"X  c #104458",
"o  c #114458",
"O  c #114558",
"+  c #124558",
"@  c #134658",
"#  c #134758",
"$  c #124659",
"%  c #134759",
"&  c #114859",
"*  c #134958",
"=  c #124859",
"-  c #134859",
";  c #134959",
":  c #134A59",
">  c #144958",
",  c #144859",
"<  c #144959",
"1  c #144A59",
"2  c #154A59",
"3  c #144B59",
"4  c #154B59",
"5  c #134D59",
"6  c #144C59",
"7  c #154C59",
"8  c #154D59",
"9  c #164C59",
"0  c #164D59",
"q  c #154E59",
"w  c #164E59",
"e  c #164F59",
"r  c #144C5A",
"t  c #154D5A",
"y  c #154E5A",
"u  c #154F5A",
"i  c #164E5A",
"p  c #164F5A",
"a  c #165059",
"s  c #175059",
"d  c #175159",
"f  c #175259",
"g  c #16505A",
"h  c #17505A",
"j  c #17515A",
"k  c #17525A",
"l  c #16535A",
"z  c #17535A",
"x  c #17535B",
"c  c #17545B",
"v  c #195359",
"b  c #18515A",
"n  c #18525A",
"m  c #19525A",
"M  c #18535A",
"N  c #19535A",
"B  c #18545A",
"V  c #19545A",
"C  c #18555A",
"Z  c #19555A",
"A  c #18545B",
"S  c #19545B",
"D  c #18555B",
"F  c #19555B",
"G  c #1A545A",
"H  c #1A555A",
"J  c #19565A",
"K  c #19575A",
"L  c #18565B",
"P  c #19565B",
"I  c #19575B",
"U  c #1A565A",
"Y  c #1A575A",
"T  c #1B575A",
"R  c #1A565B",
"E  c #1A575B",
"W  c #19585B",
"Q  c #1A585A",
"!  c #1B585A",
"~  c #1B595A",
"^  c #1A585B",
"/  c #1B585B",
"(  c #1A595B",
")  c #1B595B",
"_  c #1A5A5B",
"`  c #1B5A5B",
"'  c #1B5B5B",
"]  c #1C595A",
"[  c #1C5A5A",
"{  c #1C5B5A",
"}  c #1C5A5B",
"|  c #1C5B5B",
" . c #1D5B5B",
".. c #1C5C5B",
"X. c #1D5C5B",
"o. c #1C5D5B",
"O. c #1D5D5B",
"+. c #1E5D5B",
"@. c #1D5E5B",
"#. c #1D5F5B",
"$. c #1E5E5B",
"%. c #1E5F5B",
"&. c #1F5F5B",
"*. c #1C5B5C",
"=. c #1C5C5C",
"-. c #1C5D5C",
";. c #1C5E5C",
":. c #1D5E5C",
">. c #1D5F5C",
",. c #1E5F5C",
"<. c #1F5F5C",
"1. c #1D605B",
"2. c #1E605B",
"3. c #1F605B",
"4. c #1E615B",
"5. c #1F615B",
"6. c #1F625B",
"7. c #1E605C",
"8. c #1F605C",
"9. c #1E615C",
"0. c #1F615C",
"q. c #1F625C",
"w. c #1F635C",
"e. c #1F645C",
"r. c #20605B",
"t. c #20615B",
"y. c #20625B",
"u. c #20635B",
"i. c #21635B",
"p. c #21645B",
"a. c #22645B",
"s. c #20625C",
"d. c #20635C",
"f. c #20645C",
"g. c #21645C",
"h. c #20655C",
"j. c #21655C",
"k. c #20665C",
"l. c #21665C",
"z. c #21675C",
"x. c #21665D",
"c. c #21675D",
"v. c #22665C",
"b. c #23665C",
"n. c #22675C",
"m. c #22665D",
"M. c #22685C",
"N. c #23685C",
"B. c #22695C",
"V. c #23695C",
"C. c #22685D",
"Z. c #23685D",
"A. c #22695D",
"S. c #23695D",
"D. c #236A5C",
"F. c #236B5C",
"G. c #236A5D",
"H. c #24685C",
"J. c #24695C",
"K. c #246A5C",
"L. c #246A5D",
"P. c #246B5D",
"I. c #256B5D",
"U. c #266A5C",
"Y. c #246C5C",
"T. c #256D5C",
"R. c #246C5D",
"E. c #256C5D",
"W. c #246D5D",
"Q. c #256D5D",
"!. c #266C5D",
"~. c #266D5D",
"^. c #256E5D",
"/. c #256F5D",
"(. c #266E5D",
"). c #266F5D",
"_. c #276F5D",
"`. c #286F5D",
"'. c #26705D",
"]. c #27705D",
"[. c #27715D",
"{. c #27725D",
"}. c #27735D",
"|. c #28705D",
" X c #28725D",
".X c #28735D",
"XX c #29735D",
"oX c #2A725D",
"OX c #29725E",
"+X c #29735E",
"@X c #28745D",
"#X c #29755D",
"$X c #2A745D",
"%X c #2A755D",
"&X c #2B755D",
"*X c #28745E",
"=X c #29745E",
"-X c #29755E",
";X c #2A745E",
":X c #2A755E",
">X c #2B755E",
",X c #2A765E",
"<X c #2B765E",
"1X c #2B775E",
"2X c #2B785E",
"3X c #2A785F",
"4X c #2C785E",
"5X c #2C795E",
"6X c #2D795E",
"7X c #2C7A5E",
"8X c #2D7B5E",
"9X c #2E7B5E",
"0X c #2F7B5E",
"qX c #2E7C5E",
"wX c #2F7C5E",
"eX c #2E7C5F",
"rX c #2E7D5F",
"tX c #2F7D5F",
"yX c #2F7F5E",
"uX c #2E7E5F",
"iX c #2F7E5F",
"pX c #2F7F5F",
"aX c #307E5E",
"sX c #307E5F",
"dX c #307F5F",
"fX c #30805E",
"gX c #30805F",
"hX c #31815F",
"jX c #32815F",
"kX c #31825F",
"lX c #31835F",
"zX c #32825F",
"xX c #32835F",
"cX c #32845F",
"vX c #33845F",
"bX c #33855F",
"nX c #33865F",
"mX c #34865F",
"MX c #34875F",
"NX c #34885F",
"BX c #338560",
"VX c #348560",
"CX c #348760",
"ZX c #358760",
"AX c #348860",
"SX c #358860",
"DX c #368960",
"FX c #378B60",
"GX c #378D60",
"HX c #388B61",
"JX c #388D60",
"KX c #3B9261",
/* pixels */
"7 7 7 7 7 7 7 7 7 7 R.V 4 V V - V '.7 4 F =.M 4 4 4 V XXR.' ` %.M 4 4 7 ",
"` 7 4 $ %.d.7 V 7 F.V 4 V c - 7 6.R.V ` ' ' F.*.7 =.R.R.%.` ` h 7 - V R.",
"7 V - %.j.7 h ' ` XXV c h 7 %.%.M '.7 =.` V =.*.` ' w.XX' ' %.7 o } j.V ",
"j.R.j.%.V h ' ' ' 6.R.w.c ` 6XqXr.=.M } ` F.=.F V ' F.=.' ' F e.` h %.V ",
"%.%.XXV 7 } M } ` ` e.' 6.6XcX3Xw.V j.} } w.j.F.w.j.'.c ' ` j.%.V } d.} ",
"7 $ K.%.V ` h %.` ` ` V M.cX&X` ` =.F.` ` =.j.K.3XqXR.` F *.%.p.j.R.R.} ",
"} h r.j.=.V ` ` ` V ` =.M.p.` 5 V V ` d.} j.w.w.fXFXF.` w.V V 6XeXR.w.' ",
"` %.7 j.%.7 ` ` ` 7 ` R.6.h h V 7 V } R.%.` j.'.qXBXj.=.R.- ZXK.=.F.F F ",
"` ` V F.w.4 7 ` } ` ` ` ` ' h h d.R.' =.F F.%.;XBXw.F *.` 7 BXK.j.j.' ' ",
"` ` ' ' j.F.V w.'.` ` 7 V h h %.V 4 *.R.=.` j.XXF.V F ' } ZX&XR.e.F ' ' ",
"` ` R.V 7 j.'.R.h 7 7 - p.j.h ` R.V ' ' %.` *.j.F.F ' ' FX&X=.K.j.' ` ` ",
"` ` =.j.R.}.F.- - - V V %.6.h 7 6.=.K.K.` ` ' j.F.j w.BXd.' j.'.R.w.V ` ",
"F.' V =.j.} 6.;Xh j.R.%.` 7 7 ` ` ' ;X}.R.=.' ' j.j.' 6XeXdX;X'.XXR.R.F.",
"w.j.} 6.%.h ` ;XqX'.'.F.V F.F.h V ' e.w.R.K.=.' =.w.' ZXBXdXK.=.R.R.j.'.",
"=.j.p.'.R.w.=.;XcXR.'.XXj.3XgXXXR.j ` V F.XXw.' F ' 6X`.=.K.F.M ` p.M. X",
"gX6.R.K.R.j.j.MXR.'.F.R.XXF.6XFXBXF.F L ;X;Xj.' =.3XXX  % K.K.V 4 %.T.M.",
"cX;XXXr.d.j.w.K.R.R.w.j.R.F.F.R.;XFXj.j.ZX&X'.F.XXXX  7 7 '.h V V h ` c ",
"V K.'.;Xw.w.;XF.} '.R.` Z.w.w.R.K.'.FXFXR.F.R.FX;X$ %.7 %.K.w.' ` ' c 7 ",
"' F zXaX*.R.FXj.} R.} ` F K.j.F w.'.R.XX} V aXgXj.F *.} R.%.` ` %.h 7 ` ",
"' ' R.%.$ K.BXL } } ` } *.*.' ' F 7 7 R.M 4 V =.' ' ' *.'.R.cXKXR.c ` ` ",
"' ' =.M $ T eXgX` R.%.V ` ` d.F.F V R.r.4 M F.j.F d.F.' XXV M } 6XgXj.` ",
"' ' h V 4 w.FX;Xj.w.' ' ` ` } j.R.R.M 7 j.=.=.} F =.XXF.V 7 7 w.F.p.j.R.",
"} M 4 7 p OXFX=.XXF ' ' } ` F w.XX} d.7 j.V %.w.F ' d.R.4 V M K.p.c %.6.",
"` V 7 7 p j.XX' d.' ' ' *.F =.F.=.M =.w 7 ` R.w.w.;XF.R.M w 4 =.%.` ` ` ",
"6.V h ' 6 } 6XV ` ` ` ` ` w.K.w.h V h 7 7 e.'.R.;X6Xj.j.' } M V ` ` ` c ",
"R.} V ` } `.3Xh ` ` ` =.` %.r.7 - 4 ` 7 ' V j.NXqX5 V 6.w.R.6.` ` ' V h ",
"` R.M 7 qXqX7 d =.` ' R.j.n 4 4 7 h 7 ` ' =.p.cXeXc h R.R.` V ' ' ` ` ` ",
"` ` M h e.p.` 6.R.' ' V F.XXw.$ h ' ` ` ` R.'.gXBXj.` ` ` ' ' ` ' h - 7 ",
"*.F '.V %.M.6.M.4 ` ` ` %.7 %.p.- 7 7 ` ` p.cXgXe.` ` ` ' ` R.} 4 4 h ` ",
"` ' *.K.' %.M.7 ` ` 7 ` h 4 4 %.M.- ` 7 ` h V R.6.V R.` ' R.} 7 > M ` ` ",
"` ` } M h ` p.p.5 ` 7 h 7 7 7 7 } J.4 h } 4 6.R.V 7 6.V 7 %.4 - 4 c ` h ",
"' F.M } 6.` ` j.p.V ` 7 c h 4 7 V } M.R.} =.%.` ` V %.R.V p.M.h 7 V h V ",
"F %.6.j.%.` V =.F.F.V 7 h h h c h 6.%.%.r.;X` - ` ' M j.h XXF.j.%.` V ' ",
"j.h %.j.%.` ' h } =.h V 7 7 c ` %.6.7 7 e.;XV   7 V h h =.j.V j.%.M V V ",
"p.%.- } M.' h h V 7 w.' d V 7 ` M.V %.' ` 6.j.' 4 7 ' V R.*.' ' 7 - 5 4 ",
"7 ` h $ p.e.7 ` 7 } '.h V h * h 6.T.` ' ` c aX6X7 4 M '.F ' *.n 7 7 7 4 "
};
