/* XPM */
static char *e02c5159128a4f81cf86dab0f7fb69d5woHLhCMsOjeyTka1[] = {
/* columns rows colors chars-per-pixel */
"36 36 136 2 ",
"   c #160D01",
".  c #180E02",
"X  c #1D1306",
"o  c #1E1408",
"O  c #211607",
"+  c #22160B",
"@  c #25190D",
"#  c #291C0F",
"$  c #261B11",
"%  c #2B1D12",
"&  c #2F2014",
"*  c #322216",
"=  c #382817",
"-  c #352419",
";  c #38271B",
":  c #37291C",
">  c #3D2A1E",
",  c #3D2A1F",
"<  c #3A291D",
"1  c #3B2B21",
"2  c #3C2A20",
"3  c #3D2A20",
"4  c #3D2B20",
"5  c #3D2B21",
"6  c #3E2B20",
"7  c #3E2A21",
"8  c #3E2B21",
"9  c #3B2C22",
"0  c #3E2C20",
"q  c #3F2C21",
"w  c #3F2D21",
"e  c #3C2C22",
"r  c #3D2C22",
"t  c #3C2C23",
"y  c #3C2D23",
"u  c #3F2C22",
"i  c #3E2D22",
"p  c #3F2D22",
"a  c #3F2D23",
"s  c #3E2E23",
"d  c #3F2E23",
"f  c #3D2D24",
"g  c #3F2D24",
"h  c #3E2E24",
"j  c #3F2E24",
"k  c #3E2E25",
"l  c #3F2E25",
"z  c #3E2F25",
"x  c #3D2C22",
"c  c #412F1C",
"v  c #43331A",
"b  c #42301D",
"n  c #42311D",
"m  c #45331E",
"M  c #49371E",
"N  c #48371F",
"B  c #402D22",
"V  c #402E22",
"C  c #402E23",
"Z  c #412E23",
"A  c #412F23",
"S  c #422E22",
"D  c #422F22",
"F  c #432F22",
"G  c #422E23",
"H  c #422F23",
"J  c #422D24",
"K  c #402E24",
"L  c #412E24",
"P  c #402F24",
"I  c #412F24",
"U  c #402F25",
"Y  c #422F24",
"T  c #432F24",
"R  c #422F23",
"E  c #443221",
"W  c #453321",
"Q  c #423024",
"!  c #433024",
"~  c #443025",
"^  c #463224",
"/  c #473324",
"(  c #453326",
")  c #453327",
"_  c #453427",
"`  c #433124",
"'  c #483325",
"]  c #483524",
"[  c #483525",
"{  c #483426",
"}  c #4A3527",
"|  c #493623",
" . c #4B3827",
".. c #4D3B22",
"X. c #433228",
"o. c #483328",
"O. c #4C3828",
"+. c #4D3828",
"@. c #543F26",
"#. c #503C24",
"$. c #533F2A",
"%. c #543F2A",
"&. c #563F2A",
"*. c #533D2A",
"=. c #534025",
"-. c #534026",
";. c #554126",
":. c #564126",
">. c #564128",
",. c #564129",
"<. c #55402A",
"1. c #57402C",
"2. c #5C472C",
"3. c #5B452C",
"4. c #5F4A2C",
"5. c #624C2D",
"6. c #66502F",
"7. c #664F30",
"8. c #674F31",
"9. c #654D30",
"0. c #675030",
"q. c #675031",
"w. c #685130",
"e. c #685131",
"r. c #695131",
"t. c #695231",
"y. c #6A5331",
"u. c #695232",
"i. c #6A5232",
"p. c #6C5432",
"a. c #6C5433",
"s. c #6D5533",
"d. c #6D5632",
"f. c #6F5634",
"g. c #6B5332",
"h. c #705835",
/* pixels */
"e.F < 5 5 5 , 5 > r > r r 5 r , , , 5 , < 5 r r > r , > r r , , r , 9 9 ",
"e.^ 5 F r 9 9 5 9 9 9 9 9 r 9 9 r F 9 9 9 9 r 9 9 r 9 9 F r r F r l r r ",
"X . .   . . . . . . X   . . . . . . . . . . . . .     . . . . . .   . . ",
"#.= * - * - - * - - * - - - * - * - - - - - * - * - : - * - - * - - * * ",
"s.^ r F F Q F r r l l d r l r 5 l r r Q r r r Q F Q Q Q F L F L L L F l ",
"h.} L Q Q l z l y l l r z l l l l l z Q Q z d Q L d d d L L L ^ Q ^ Q l ",
"v & % & % $ % % $ % % % $ $ % % % $ & $ % $ $ @ % % $ & % $ % % % % % $ ",
". X       . . . .       @ O   . . .     .   O @           . . .     X X ",
"} o.X O * & % % # = = * 2.>.% % * % % * % % :.2.& : * # * # * * o o Q ^ ",
"e.} X X ; , # # * w.r.f.' &.:.% c # # , % :.$.] d.q.e.* # # < - X X z r ",
"q._ X X # * < * r.F c L * - < @ % F F % # = ; * Q r Q 5.* < * % o o r F ",
"q.o.X X % # * ' a.F % % # # * < # % % % < - # # # & F d./ * # % o X l r ",
"w.( X X % % # * O.F % @ @ * ; $ # # % # @ - - @ # % ^ +.* # % % o X l r ",
"e.( X O % @ % ; % * # - , - c @.- # # - @.m - , - @ * % = % # & O X l F ",
"e.( X o # % = * % # - - * @ = &.* % % * &.- @ * ; - @ # * = * # o X F r ",
"e.( X o % * - * # # ; * > M m - O # % O - E M < * ; # % * * * # o X l r ",
"r.~ X + # & c J # # O * &.s.>.- ; # # = ; *.a.&.* + # # B c & # O X l 5 ",
"r.~ X O % ..9.* # * ; # * 5 % = 5.* * e.; % < * # - = # - 5...% o X l F ",
"9.o.. . #.5.* # % w.s., $ $ % % F a.s.E % % # # c s.8.# # * 5.+.. X L r ",
"5 g X X ; ; # % % c 5 8.m O * 9 % F F % 2 * O n 5.B B % # # < ; X X L F ",
"5 L X X ; ; # # # % % c - o & : # % & @ > * m 5.c % % % # % ; ; X X l 5 ",
"B L X X < ; @ # , % @ ; <.5.9.3.; # # , * O ..8.- + % c % + < < X o r r ",
"F T X o * ; < ; * # % % o.1.&.+.% % # * - ; } ] % % # * ; < ; & o o l l ",
"L ^ X O # & < = # % # # % - * % % # # # - ; - % + % # # ; ; & # o o ~ ~ ",
"* * o o $ $ + + + @ @ $ @ + + + $ $ + + + @ O @ + + $ @ + @ + $ X X - % ",
"$ $ % % $ $ $ % $ % $ $ % $ $ % $ % % % $ % $ $ % & $ $ $ $ $ $ % % $ $ ",
"L L L ^ L l ~ ~ g L L L L l L L L L l l ~ ~ L L J J J J T L ~ ~ L L L L ",
"9 5 , < 1 - 1 1 1 2 ; 2 9 1 ; 1 1 1 ; 1 1 9 < 9 7 2 ; 2 , 2 2 2 9 ; 9 < ",
"      .     .                     .                                     ",
"; 9 X . n q.4.4.5.5.5.= + + + O o + + O @ O O + * 8.5.5.5.5.8.m . X 9 ; ",
"5 l X X r *.O.O.+.+.*.* ] 5.5.4.5.2.4.5.4.4.5.] % *.+.+.+.+.+.> X X L J ",
"L L X O % * % & % * % # E 1.*.*.$.$.*.$.&.&.1.F @ * * % * % * % X X l L ",
"L o.X X % # # # # # % # % * * * * * * % - * - % $ # # # $ # # % O X o.L ",
"* * X o $ $ @ @ @ + + $ @ O + $ o $ + $ + + + + $ $ @ @ + $ @ @ X X ; % ",
"$ $ % % $ $ $ $ $ $ % % $ $ $ $ $ % % $ $ $ $ $ $ $ $ $ $ % % $ % $ $ $ ",
"J ~ ~ ~ L L ~ L L L L L ~ ~ L ~ g J ~ l l t l l l t l g l l ~ L L L L L "
};
