/* XPM */
static char *_7220973800b44f5bf36c3698094f0d1PF37MQtCInfATnc9[] = {
/* columns rows colors chars-per-pixel */
"36 36 6 1 ",
"  c #1F150F",
". c #140D12",
"X c #2F1D13",
"o c #412617",
"O c #552F1A",
"+ c #663C1A",
/* pixels */
"ooooXXoooo .       ..............   ",
"oooXXXXXoo .   oooX  ............  .",
"OOOXoooXXX     ooooo ...............",
"++OXoooOX      Xoooo .   .......   .",
"++XXoOOO      XXoooX .   .......   .",
"++oXOOOoXX.   oooXX .    ......    .",
"++oXOOOXXX... Xooo ..    ......    .",
"OOoooOoXXX...XXXXX...   .......   ..",
"++XooOXXX .. XXXX ..  XX......    ..",
"++XoooXXX...   XX ..XX  ..... XXXX .",
"+OXXXX XX.. XX     ...    ...XXXX  .",
"+XX XX .... XXXXX  ooX.      Xooo  .",
"OXX..  ....  XXXX.Xoooo     XoooX  .",
" XX....  ..  XX ..XXooo      XXX   .",
"  ...  X ..    .. XXoo     oOOOO  ..",
"   .. XX ..    .. XXoX   XoooOOO   .",
"   . XXX...   ....XXX.   XoooOOX   .",
".  . XX ..........XX..  XXoooOo    .",
".  .XXX...........  ... XXXooO     .",
". ..XXX ...... ..   ....XXXXoo .....",
"  ..XX .....   ..  ..X .XXXXX ......",
"       .....   .. .. XX. XXX ...... ",
"    XX    XX   .  ..  ..  XX....... ",
"  XXXX    XXXX..   .....    .......X",
"XoooXX    XXXX..  XXX...  ...  ... X",
"ooooXXX  XXXX..  XXoooX....   ...  X",
"ooooXXX XXXXX..  XXoooooX    ..   XX",
"OOoXXX  XXXXX.. XXXoooooXX   .   XXX",
"OOOOXX oooXX .  ooXoooOo    ..  XXXX",
"XoOOX  ooooX.. XooXoooOX  ....  Xooo",
"oXXX  oooooX.  oooXooOo   ..... XooO",
"OOoo  ooooX .  oooXXoO   ... ..XoooO",
"ooooXXoooo .     XXXXX  ...  ..XooOo",
"oooXXXXXoo .   ooo    ....  ..XoooOX",
"OOOXoooXXX     ooooo .....  . XooooX",
"OOOXoooOX      Xoooo    .  . XXooooX"
};
