/* XPM */
static char *_bf2a45bad4a4a2fc742cbdf06b7ffb5NV2X689s3nATYF5F[] = {
/* columns rows colors chars-per-pixel */
"36 36 20 1 ",
"  c None",
". c #181425",
"X c #3F2832",
"o c #7E2029",
"O c #0B2F52",
"+ c #3A4466",
"@ c #9E2835",
"# c #CB1B21",
"$ c #E53B44",
"% c #63C64D",
"& c #D4B400",
"* c #C2866A",
"= c #FFE762",
"- c #124F88",
"; c #8C9BB3",
": c #E8B795",
"> c #F1D4BF",
", c #C0CCDC",
"< c #F7E2C7",
"1 c white",
/* pixels */
"                                    ",
"                     ......         ",
"                ......+++++..       ",
"         ..................+..      ",
"        ....................+..     ",
"       ......................+.     ",
"      .......................+.     ",
"     ........................+.     ",
"     ..........................     ",
"     .........................      ",
"     .........................      ",
"     ........................       ",
"     .........*************.        ",
"     ........**::::::::::::.        ",
"     .......**::XXXXX:::XXX.        ",
"      ......*:::XXXXXX:XXXX.        ",
"      .>>>..................        ",
"      .>**..****.%%%.***.%%.        ",
"      .:****::::.....::<....        ",
"      .:::::::::*****::<***.        ",
"       .**::::<<:::::<<<::<.        ",
"        .*::::<<:::::***::.         ",
"        .**:::::::*11111*:.         ",
"       .;;;;;,,,,,,,***;;;;.        ",
"       .OO;;OOOOOOO,XXX;OOO.        ",
"       .O;--;OOOOO,,#$#;;O;.        ",
"       .O;--;OOOOOO,o@o;OO;.        ",
"       .O;--;OOOOO,,#$#;;O;.        ",
"       .O;--;OOOOOO,o@o;OO;.        ",
"       .O***:OOOOO,,#$#;;O;.        ",
"        .***:OOOOOO,===;OO*.        ",
"        .***;;,,,,,,&.&;;;*.        ",
"         ...........&&&....         ",
"           .XXXXXXXX....            ",
"           .XXXX...XXXX.            ",
"           .XXX.  .XXX.             "
};
