/* XPM */
static char *ae73b407747942d894e068e6690b30abaB5iebI5wg3myf4Y[] = {
/* columns rows colors chars-per-pixel */
"36 36 14 1 ",
"  c None",
". c #2B211D",
"X c #241527",
"o c #202E37",
"O c #411D31",
"+ c #752438",
"@ c #52463F",
"# c #394A50",
"$ c #215B63",
"% c #577277",
"& c #8A7762",
"* c #36A48E",
"= c #C2A180",
"- c #89D4AE",
/* pixels */
"                                    ",
"                                    ",
"                                    ",
"                         @&&==      ",
"                        @&&&&&=     ",
"                        @&&&&&&=    ",
"                        @@..=&&.    ",
"                        @@.*.=.*    ",
"                        @@@&&.&@    ",
"                     ###  @@@&@     ",
"                    #%##o ..@@@     ",
"                   #%##oo&@@        ",
"                   o##oo..&=&&&=    ",
"                   &ooo@&&.=..&&@   ",
"                  &@@.@...&=&@@.@   ",
"                 &&@  .@&&=&.....@  ",
"                 @@   @...=.&@  .@  ",
"                &@    .@@&&...  .@@ ",
"                &@     ....&@    .@ ",
"                &@     ..        .. ",
"               &@   XX... X       .@",
"          %%##o@@o# XOXXXX+       .@",
"          -oooo@o#   XXO+XO        .",
"         -           @XO+X@         ",
"        *            @&X+X.@        ",
"       *             @&XOX.@@       ",
"      *              @&&O  .@&      ",
"     *                @&O   .&&     ",
"    $                 ==X    .&@    ",
"  -$                 @==      .@    ",
"-$*$-               @@=       .@    ",
"$*$*$               @&         .@   ",
"*-*-*-             @&          ..@  ",
"$*$*$             @&           .    ",
"-$*$-             @@&               ",
"  -                                 "
};
