/* XPM */
static char *ac64370069f74cc3fd9b2a8afa23741bfj9G9cLIQi9Wp4Nf[] = {
/* columns rows colors chars-per-pixel */
"36 36 33 1 ",
"  c None",
". c #170E12",
"X c #26181E",
"o c #181425",
"O c #0F2426",
"+ c #193D3F",
"@ c #5F181F",
"# c #462622",
"$ c #743F39",
"% c #2B2442",
"& c #583845",
"* c #3A4466",
"= c #4E4177",
"- c #9E2835",
"; c #B72E3B",
": c #FF0044",
"> c #CD3846",
", c #B86F50",
"< c #63C64D",
"1 c #E0C000",
"2 c #FFE762",
"3 c #FFEB77",
"4 c #536193",
"5 c #8F80BA",
"6 c #E1888F",
"7 c #D4A996",
"8 c #D8DAA4",
"9 c #BCB3D6",
"0 c #DBEFC4",
"q c #FFF7C7",
"w c #FFFADD",
"e c #D7D1E6",
"r c white",
/* pixels */
"  88rr                  88rr        ",
"  88rr                  88rr        ",
"88ww      @@-->>66        88rr      ",
"88ww      @@-->>66        88rr      ",
"88ww    @@@@@@-->>66      88ww      ",
"88ww    @@@@@@-->>66      88ww      ",
"  88wwww88@@;;66;;66;;8888ww        ",
"  88wwww88@@;;66;;66;;8888ww        ",
"    8888@@;;66oooooo;;66ww          ",
"    8888@@;;66oooooo;;66ww          ",
"      @@@@;;oo99ee99oo;;            ",
"      @@@@;;oo99ee99oo;;            ",
"      @@@@66oo::ee::oo66            ",
"      @@@@66oo::ee::oo66            ",
"      @@@@;;oo99ee99oo;;            ",
"      @@@@;;oo99ee99oo;;            ",
"  11oo11@@66oo==99==oo66ooww        ",
"  11oo11@@66oo==99==oo66ooww        ",
"  111111----66%%==%%66>>wwww        ",
"  111111----66%%==%%66>>wwww        ",
"  ****11oo44--66;;6644ooww    00<<  ",
"  ****11oo44--66;;6644ooww    00<<  ",
"  oooo**33oo44336633oo33    ++<<00  ",
"  oooo**33oo44336633oo33    ++<<00  ",
"  oooooooo4433oo33ooqq**oo##OOOO    ",
"  oooooooo4433oo33ooqq**oo##OOOO    ",
"  9944oooo44oo33qqqqoooooo$$$$      ",
"  9944oooo44oo33qqqqoooooo$$$$      ",
"  55994444oooo33ooqqoo55####        ",
"  55994444oooo33ooqqoo55####        ",
"  5555$$$$$$,,,,227777##55          ",
"  5555$$$$$$,,,,227777##55          ",
"        XXXXXX....&&&&              ",
"        XXXXXX....&&&&              ",
"        XXXXXX  &&&&&&              ",
"        XXXXXX  &&&&&&           r  "
};
