/* XPM */
static char *be5178e3e7e7437fc1dfd25152ab8693SAuvKAeibep9ZdJr[] = {
/* columns rows colors chars-per-pixel */
"33 33 92 1 ",
"  c #000A03",
". c #000902",
"X c #09130C",
"o c #0E1811",
"O c #000C03",
"+ c #076402",
"@ c #022603",
"# c #000803",
"$ c #000A02",
"% c #000B03",
"& c #011303",
"* c #000D03",
"= c #000903",
"- c #011903",
"; c #000802",
": c #010B04",
"> c #5D6260",
", c #0A130D",
"< c #0C160F",
"1 c #28312B",
"2 c #222A25",
"3 c #030D06",
"4 c #0F1912",
"5 c #2E3630",
"6 c #0C150E",
"7 c #000801",
"8 c #0B0913",
"9 c #050A0A",
"0 c #040E07",
"q c #030A07",
"w c #010A05",
"e c #050E08",
"r c #101913",
"t c #070A0E",
"y c #040A09",
"u c #0D0916",
"i c #101D12",
"p c #3F5340",
"a c #07100A",
"s c #080A0F",
"d c #050A0B",
"f c #09120C",
"g c #09250A",
"h c #063E06",
"j c #0C170F",
"k c #0C0915",
"l c #030A08",
"z c #0A170C",
"x c #0A230C",
"c c #19431F",
"v c #243E32",
"b c #103612",
"n c #021304",
"m c #050F08",
"M c #141C17",
"N c #324C33",
"B c #043F04",
"V c #304342",
"C c #4E3478",
"Z c #083410",
"A c #023400",
"S c #171F19",
"D c #19231C",
"F c #0E1D11",
"G c #113C13",
"H c #0F3D14",
"J c #153216",
"K c #020B05",
"L c #08200A",
"P c #124412",
"I c #030B06",
"U c #000C04",
"Y c #010E05",
"T c #000B04",
"R c #101A13",
"E c #2E3930",
"W c #010F05",
"Q c #030C05",
"! c #000E03",
"~ c #040D07",
"^ c #011203",
"/ c #011703",
"( c #0C150F",
") c #0B140E",
"_ c #0F1811",
"` c #020C05",
"' c #011103",
"] c #011503",
"[ c #010A03",
"{ c #001003",
"} c #011006",
"| c white",
/* pixels */
"   .Xo.     O+@#                 ",
"     $%      &*                  ",
"    =&-=                         ",
"      %                          ",
"                                 ",
"                                 ",
"    ==                           ",
"    =;                           ",
":    :                           ",
">,  <1X                          ",
"23 $456.                         ",
"7$89$0                    .      ",
"  qw    $                er:     ",
"        tyu             7ipa.    ",
"        sdy            .fghj:    ",
"        $kl           0zxcvbnem  ",
"                     .MNBVCZASD. ",
"                       ;FGHJK    ",
"                        KLPI     ",
" UY                 T   .RE7     ",
"  %                TW    :Q      ",
"                                 ",
"  = =                            ",
"   =                             ",
"   O!             0~             ",
"  =^/=           .().            ",
"            .                    ",
"            _0                   ",
"       =    X`                   ",
"     =']=   .                [[  ",
"      !{         }T          [   ",
"                                 ",
"                                 "
};
