/* XPM */
static char *e458f58d5ae44e63eedb9b0d12e24909IiJs96NyVJGWpqoo[] = {
/* columns rows colors chars-per-pixel */
"36 36 50 1 ",
"  c #000A03",
". c #000903",
"X c #07110A",
"o c #010B04",
"O c #000A02",
"+ c #020C05",
"@ c #040E07",
"# c #606662",
"$ c #1B241D",
"% c #000902",
"& c #040A0B",
"* c #050A0D",
"= c #000700",
"- c #424844",
"; c #3E4440",
": c #000800",
"> c #172019",
", c #061009",
"< c #030A0A",
"1 c #040A0C",
"2 c #151E18",
"3 c #141D17",
"4 c #131D16",
"5 c #0B140E",
"6 c #141E17",
"7 c #09130C",
"8 c #0F1811",
"9 c #101913",
"0 c #0D1610",
"q c #0C150F",
"w c #050F08",
"e c #010A04",
"r c #0A0A18",
"t c #030D06",
"y c #000801",
"u c #4D534F",
"i c #464D48",
"p c #0B150E",
"a c #121B15",
"s c #0F1812",
"d c #2C342E",
"f c #434A45",
"g c #1B241E",
"h c #18211B",
"j c #101A13",
"k c #08120B",
"l c #151F18",
"z c #0A140D",
"x c #010904",
"c c white",
/* pixels */
"             . Xo   OO              ",
" ++          .@#$% O&*O             ",
"=-;:          o>,   <1O             ",
"%23%           %     O    %         ",
" %%                      +4o        ",
"                         o5         ",
"                          %         ",
"        +o                          ",
"      o 67%                         ",
"     %89%                           ",
"      oo0,                          ",
"       %qw                          ",
"        %                           ",
"  ee                                ",
"                                    ",
"    O                               ",
"   ere                              ",
"    <                               ",
"         wt                         ",
"        yuip%                       ",
"        %as+        y%              ",
"         %%        tda%             ",
" o ..              wfgy             ",
" h@. ..             o               ",
"tw                                  ",
"3q%                                 ",
"                                    ",
"                                    ",
"                                    ",
"                        .           ",
"               oo                   ",
"               sj%                  ",
"             kl                     ",
"             o+k7%                  ",
"              %7z%                  ",
"               %%              ex   "
};
