/* XPM */
static char *_9beeb097655433ad693c96f067b8fb1gwerMjqvsD6pLBtt[] = {
/* columns rows colors chars-per-pixel */
"36 36 83 1 ",
"  c #000A03",
". c #010B04",
"X c #000902",
"o c #061009",
"O c #0E1711",
"+ c #040D07",
"@ c #0A140D",
"# c #000801",
"$ c #050F07",
"% c #18221B",
"& c #1D261F",
"* c #07110A",
"= c #000903",
"- c #252C2B",
"; c #5B4E75",
": c #665585",
"> c #2D3135",
", c #1D2620",
"< c #101912",
"1 c #172019",
"2 c #404943",
"3 c #3C3F45",
"4 c #6A5093",
"5 c #7B5DA8",
"6 c #3D3B4C",
"7 c #414A43",
"8 c #222B25",
"9 c #030D06",
"0 c #000600",
"q c #0B150D",
"w c #313737",
"e c #373B3F",
"r c #121D15",
"t c #0F1812",
"y c #010C04",
"u c #020C05",
"i c #09130C",
"p c #0F1912",
"a c #0D1710",
"s c #07100A",
"d c #121C15",
"f c #141D17",
"g c #0C160F",
"h c #09120B",
"j c #121B15",
"k c #050F08",
"l c #000A02",
"z c #131C15",
"x c #060F09",
"c c #4B524D",
"v c #262F29",
"b c #19221C",
"n c #1B231E",
"m c #0E1811",
"M c #17201A",
"N c #161F19",
"B c #040E07",
"V c #4F5552",
"C c #28302B",
"Z c #060F08",
"A c #0C150F",
"S c #0F1711",
"D c #0C150E",
"F c #18211B",
"G c #151E17",
"H c #000A01",
"J c #626864",
"K c #010A04",
"L c #180A38",
"P c #080A14",
"I c #010A05",
"U c #1E0944",
"Y c #0A0A18",
"T c #010A03",
"R c #08120B",
"E c #030C06",
"W c #151F18",
"Q c #000901",
"! c #343C36",
"~ c #3E4641",
"^ c #090A18",
"/ c #020A07",
"( c white",
/* pixels */
"                                    ",
"                                    ",
"                                 .  ",
"                                    ",
"         X                          ",
"        oOX                         ",
"       X+@                          ",
"    X#$%&*#X                        ",
"   =@&-;:>,<                        ",
"   X12345678X                       ",
" 99 X0qwer0X                        ",
"XtOX  X yX   Xuu                    ",
"           Xip<aX                   ",
"            9i*                     ",
"            XsdX                    ",
"       X      X            X        ",
"      Xfo                X g.       ",
"   X   ou                h9ju       ",
"  .hk                   lzxX     =#X",
"  9cv#                   X.bu    unm",
"  .MgX                  NB B     BVC",
"   XX                   Z.        ,A",
"              X                     ",
"     X       xSX                    ",
"    kDapX    BD             B.      ",
"    kOB9      X           u.FB      ",
"    XkMX                 XGiX       ",
"      .        .o         ..j9      ",
"           Hl XMJo          Au      ",
"          KLPl kM.          X       ",
"      .   IUYl  X                   ",
"      T    Hl         9*     .R     ",
"           ko         *dX    EWK    ",
"        B Q!~X         X      X   l^",
"       uF. dN                      /",
"           XQ                       "
};
