/* XPM */
static char *_aafa3c7512c4af4cab9b68e5eb89fe1SnDzqjECL1Qn6Blq[] = {
/* columns rows colors chars-per-pixel */
"32 32 117 2 ",
"   c #09090F",
".  c #0E0F18",
"X  c #07070B",
"o  c #06060A",
"O  c #0A090F",
"+  c #0B0A10",
"@  c #09080D",
"#  c #161319",
"$  c #0A090D",
"%  c #08080C",
"&  c #0B0A0E",
"*  c #07070C",
"=  c #08080D",
"-  c #07080D",
";  c #24202E",
":  c #2C2736",
">  c #08090F",
",  c #0E0C10",
"<  c #06060B",
"1  c #07060B",
"2  c #09080C",
"3  c #0A0A0F",
"4  c #0B0B11",
"5  c #08080E",
"6  c #0B0A0D",
"7  c #08080F",
"8  c #06070B",
"9  c #07070A",
"0  c #0A0A0D",
"q  c #07060A",
"w  c #1B1924",
"e  c #111018",
"r  c #09090E",
"t  c #131018",
"y  c #0B0B13",
"u  c #3D3745",
"i  c #25222E",
"p  c #090910",
"a  c #08070C",
"s  c #09090C",
"d  c #0A0A11",
"f  c #08070B",
"g  c #0D0D15",
"h  c #0A0A0E",
"j  c #09080E",
"k  c #08080B",
"l  c #0A0A10",
"z  c #0B0B12",
"x  c #050509",
"c  c #1D1A25",
"v  c #352F40",
"b  c #3E374A",
"n  c #1A1822",
"m  c #17151E",
"M  c #23202C",
"N  c #060609",
"B  c #161317",
"V  c #0C0C13",
"C  c #1B1822",
"Z  c #111019",
"A  c #13121B",
"S  c #0C0C12",
"D  c #0A090E",
"F  c #05060A",
"G  c #23202D",
"H  c #16141E",
"J  c #0D0C0F",
"K  c #151314",
"L  c #141213",
"P  c #1B1818",
"I  c #0C0B0E",
"U  c #07080C",
"Y  c #090A10",
"T  c #26212B",
"R  c #0C0C11",
"E  c #0F0E11",
"W  c #08090E",
"Q  c #0D0C12",
"!  c #0C0B11",
"~  c #181617",
"^  c #121018",
"/  c #0B0A0F",
"(  c #0F0D14",
")  c #110E16",
"_  c #05050A",
"`  c #14111A",
"'  c #100E15",
"]  c #0A090C",
"[  c #0B0A11",
"{  c #0E0E15",
"}  c #100E13",
"|  c #09090D",
" . c #100F18",
".. c #403A48",
"X. c #181721",
"o. c #29232D",
"O. c #0C0C15",
"+. c #0B0B10",
"@. c #0A0B12",
"#. c #0E0D11",
"$. c #110F16",
"%. c #13111A",
"&. c #0C0C14",
"*. c #0D0C0E",
"=. c #0D0C10",
"-. c #332C3C",
";. c #171520",
":. c #131115",
">. c #100E11",
",. c #141315",
"<. c #131015",
"1. c #151216",
"2. c #141116",
"3. c #0E0D14",
"4. c #110F17",
"5. c #050609",
"6. c white",
/* pixels */
"  . X o o o o o o o o O + o o @ @ # $ o o o o o o o o % o & $ o ",
"* = o o o o o o o o - ; : > o X o , % o o * < o < o 1 2 X o o o ",
"o o o o 1 1 o o o o o 3 4 o o o o o o o o 5 o X X * * X o o o o ",
"o < * o = % X o o o o X o % % o < o o o o o o % % * o o $ X < o ",
"o o < o o o o o o o X * o o o o * < o * o < o o 6 o 7 8 X X o o ",
"o o o o 9 0 o o o o o o o o o o o o o X o o o o q * w e r t o o ",
"X 6 o * * X o o o o o o o o o o o o X   o o o o 8 y u i p a o o ",
"o s X   d o X o X f o o o o o o o o < < o o o o < o g   o o o o ",
"o h j   a   0 X k k o o o o o o o X < o o X X o o o < < l + z * ",
"o o x c v r o 6 o o o o o o % o o % o o * p o o o o o o + b n x ",
"o o < m M   N o o o o o o o % o $ B   o - p o o o o o o V C Z < ",
"X o * X x A S o o o o o o o o o o a * X o o o o o q $ < * x < X ",
"D o o o F G H x o o s J o X X o o o o o o o < * o 0 % o o o o o ",
"o o o o o < o o o x K L o 0 % * * o o o o o o o o P I o U 5 o o ",
"o o o o o o o o < o o o o o o o o o o o o o o = * a + * 8 * o o ",
"o o o o o 8 < o 5 * o o o o o o Y 5 o o o o = T R o X X X o o o ",
"o o o o o E % o o o o o X o o o W = o o o o o Q ! 1 o o = = o o ",
"< % X < o ~ 0 o o o o X D ^ * o N / ( o o o o o ) X o o < X o o ",
"h E k o o _ o o o o o o @ ` o - o X @ o O ' o o o o o o o o o o ",
"o ] f o o o o o o o o o = [ l M { < o < } | o o o o o o o o o o ",
"o o o o o < o o o o o o o <  ...X.= o S o.r o o o o o o o o o o ",
"o o o o o X < o o X o o X o X O.= o o X +.o o o o o 0 X o o * % ",
"o o o o o o o o o o @.= X * a < | X o o o o o o o o X o o o j #.",
"o o o o o o o o o X ! X < = o o o o o o o o o o o o o o o o O.3 ",
"o x o o * X o < o [ $.0 = y o o o o o o X * o o X X o o o o o % ",
"= %.+ o o o o o % &.2 *.X o o o X X o o o o * < X f o o =.% o o ",
"&.-.;.* o o X X s 9 o f q o o D $.o o o o o o o o o f f :.$ o o ",
"o * < o o o < o o o o o o < o * @ o o o o o o o o o >.0 o X a o ",
"o o o o o o o o o o o * X + = o o * o o o < < o X o ,.I o o @ <.",
"o o o o o o o o o o o < o < o o X X o o o o X D r < < 1.& o f 2.",
"o o o o o o o o o o o o o 1 o <   o o o X o o = * o o $ X o o x ",
"o o o o o o o o 0 X o o < @ o o o o o o $ X o o o < o o o 3.4.5."
};
