/* XPM */
static char *_4ac46a37d8a440bb57816f1c7c2bb6eHO767MwPdYpcD4dB[] = {
/* columns rows colors chars-per-pixel */
"36 36 114 2 ",
"   c #543623",
".  c #553B2B",
"X  c #563F30",
"o  c #57402F",
"O  c #59402F",
"+  c #564132",
"@  c #5B4435",
"#  c #5B4638",
"$  c #5D4B3C",
"%  c #604634",
"&  c #624935",
"*  c #624D3C",
"=  c #684F3B",
"-  c #63503E",
";  c #68513D",
":  c #5C4E42",
">  c #5E5144",
",  c #5F564A",
"<  c #614F41",
"1  c #645244",
"2  c #6B5543",
"3  c #6E5A46",
"4  c #62564B",
"5  c #6A5648",
"6  c #63594E",
"7  c #6B5A4B",
"8  c #705F4D",
"9  c #645C52",
"0  c #6A5E52",
"q  c #72604D",
"w  c #666155",
"e  c #6A6255",
"r  c #66645A",
"t  c #6A645B",
"y  c #67685E",
"u  c #6D695F",
"i  c #756453",
"p  c #786655",
"a  c #71675B",
"s  c #72695E",
"d  c #7A6B5D",
"f  c #7C725E",
"g  c #6E6660",
"h  c #6D6A61",
"j  c #746D63",
"k  c #796F63",
"l  c #746F6A",
"z  c #6F7066",
"x  c #6F7068",
"c  c #757166",
"v  c #7B7265",
"b  c #76726A",
"n  c #7A756B",
"m  c #7C796D",
"M  c #7B7771",
"N  c #7E7B72",
"B  c #827366",
"V  c #827669",
"C  c #83796A",
"Z  c #827E6F",
"A  c #88796C",
"S  c #817B71",
"D  c #807B73",
"F  c #827E73",
"G  c #857E72",
"H  c #827F75",
"J  c #897F75",
"K  c #817F79",
"L  c #838174",
"P  c #818076",
"I  c #868074",
"U  c #858177",
"Y  c #868376",
"T  c #898276",
"R  c #83827A",
"E  c #868378",
"W  c #858579",
"Q  c #878479",
"!  c #878779",
"~  c #87857C",
"^  c #8A8479",
"/  c #88877F",
"(  c #86887B",
")  c #87887D",
"_  c #88897C",
"`  c #888A7D",
"'  c #8B8A7D",
"]  c #8A8A7F",
"[  c #8A8B7F",
"{  c #888C7F",
"}  c #90887B",
"|  c #878980",
" . c #878A80",
".. c #878A82",
"X. c #8B8A81",
"o. c #898982",
"O. c #8A8B83",
"+. c #8A8D81",
"@. c #8D8D83",
"#. c #8C8E83",
"$. c #8A8D84",
"%. c #8B8C85",
"&. c #8C8D85",
"*. c #8D8F87",
"=. c #918E84",
"-. c #8F9085",
";. c #8C9086",
":. c #8D9286",
">. c #8F9189",
",. c #929185",
"<. c #939389",
"1. c #91948C",
"2. c #98948C",
"3. c #9B9A93",
/* pixels */
"2 v / *.] Q X.] X.*.X. .O.O. . . . . . .O.O.$.<.1.<.=.O.X.~ ~ ~ O.$.S i ",
"v *.$.Q F L Q W M j a a s s f c j j j j j k b n m b j n K ~ E H L +.>.G ",
"C :.( L L ] Q m 0 $ # % * 1 1 1 1 1 1 1 1 2 2 1 < * & < h H ~ E F ] :.Y ",
"v { Q Q X.Q c 4 % % < 2 5 5 7 2 7 5 5 5 5 5 1 < * * * % * e N ~ E X.X.Z ",
"v +.Q ] ] m 3 @ * 8 j b k k k k j j j c k k j s s j s 5 X = d Y ] +.#.G ",
"v ] ] +.] v ; & 5 j M n n b b n b m n m n n k n n M M d 2 ; i m ] +.#.T ",
"B ] ] +.{ f 2 ; i n M b c k c m m v m m m c c n n C F v 8 ; i L ] +.#.T ",
"v -.] #.] v 3 2 s M S m b b c m m m m m m n m v k n N c 8 2 i Z ] #.=.T ",
"B { { #.] f q 3 d m L m m m n m m m m m m m m c v n S c 7 2 i G ] +.:.T ",
"C -.] { ! f 3 3 s Z P N M M m m m S m C m m n m n n M j 7 3 i G ] #.=.T ",
"V :.{ :.] f 3 3 c N P P S C S S S D S n C M m m m S D k 5 2 i G { +.,.^ ",
"V <.' { ] v 3 ; s N  .N b l n F S H H H H Y F F K K K j 3 2 k ^ ] ,.,.^ ",
"B 2.,.' #.Y f q i j k a 0 4 7 e t a j k f v v c j k j i 3 d J X.! ^ <.} ",
"A 3.<.^ ^ #.' C q 2 = = * & * * = = 2 7 3 3 2 3 3 2 = 8 k } =.X.! ] <.} ",
"A 3.2.^ ' ^ ,.' C p i i p p p p i i i p p p p p i i p B X.<.=.^ ^ ,.<.Q ",
"k <.2.,.' G ! ' ] ] ^ ] ! } X.' ' ' ' ^ ! ] ' ' T ' ] *.=.^ T T ' <.-.v ",
"8 N #.2.2.=.=.X.=.,.,.<.=.=.=.=.,.<.,.,.=.,.,.,.=.,.<.=.=.} ,.,.=.Q c 4 ",
"7 m Y X.=.=.=.=.=.=.=.=.=.] =.X.X.X.' ' *.=.=.=.X.' X.X.' X.=.=.^ c e - ",
"e N R S m M m m m n b c j j b k l j j b M N M m b j j l j l b b l b j 4 ",
"e N N j t s j t u u h h t j g g a t t j j h j j s t g t t t e e t l m e ",
"i M c r t t h g h j t j g g g g j t u s u s a u g g g j j j t t t x b j ",
"0 M h e r g j h 0 1 * : * 1 < < < < $ 1 * * < < * $ * 5 a b b j e g l j ",
"0 b h r t j u 9 $ X o @ X # 1 . # # # # # # # # # # X # 4 j b h t h l g ",
"9 l g t t t 4 # + # : 4 4 4 4 4 4 4 4 4 4 4 6 6 6 4 4 : $ 5 e t h h j t ",
"5 l h h h 4 # . # , 9 0 9 r 9 0 9 0 r 0 r 9 r 9 w e r 6 * # 1 w h h x e ",
"5 j h g r 4 @ X : 9 r 9 9 9 9 9 9 9 9 9 9 9 9 9 9 9 r 9 $ # < e h h h 0 ",
"4 j g g t 4 # @ : 6 9 9 9 4 9 9 9 9 9 9 9 4 6 6 4 9 w 9 $ # 1 0 t h h e ",
"5 l r r t 4 # # : 6 6 6 4 9 9 4 4 9 6 6 6 4 , 6 4 9 9 6 $ # < 9 r h x e ",
"5 h r y t 4 $ # : : , 6 6 4 4 9 9 4 4 4 6 , 6 , , 6 6 4 $ # < 9 t g h 9 ",
"4 g t t r < X X : , 6 , 4 6 9 9 9 9 9 4 6 6 6 6 6 6 9 , @ . $ 9 t h h 9 ",
"1 t r t 0 4 # X : , , , , 4 9 6 9 9 9 6 6 6 6 , , 6 9 > # + $ 9 r y y e ",
"1 h g 9 9 9 1 # + : : : : > > > : > > : > : : : : : : $ # $ 4 9 w t u w ",
"1 h r 9 9 w r 7 - # O O @ @ @ @ $ @ @ + @ @ o @ @ + + $ > w w w 6 r y 9 ",
"6 b g 9 , 9 w r 6 1 - $ - - - - - - - - - - - - - - * 1 w w w 6 , w y e ",
"> h x h r 9 , w w w e w e e r e e e e e e y a r w e w w w 6 6 6 w r h w ",
"  1 y h z y r 9 w w r r r y y y z y y y z z z z y r r r w e r r r r 6 O "
};
