/* XPM */
static char *_c5a298516dc468f941d3a852d83a80fsB7YHuluG63PbwEJ[] = {
/* columns rows colors chars-per-pixel */
"36 36 131 2 ",
"   c None",
".  c #030303",
"X  c #100F0F",
"o  c #191817",
"O  c #1D1C1B",
"+  c #201F1E",
"@  c #27221B",
"#  c #191D24",
"$  c #1C2026",
"%  c #232222",
"&  c #282725",
"*  c #2A2927",
"=  c #2D2C2A",
"-  c #312F2D",
";  c #33312D",
":  c #363432",
">  c #393734",
",  c #3B3936",
"<  c #3E3C3A",
"1  c #403E3B",
"2  c #5D482D",
"3  c #43413E",
"4  c #5E4F3C",
"5  c #61513C",
"6  c #474441",
"7  c #494643",
"8  c #4C4946",
"9  c #47474A",
"0  c #4E4C49",
"q  c #534B41",
"w  c #524E4B",
"e  c #575044",
"r  c #55514D",
"t  c #58544E",
"y  c #575450",
"u  c #595652",
"i  c #5D5955",
"p  c #5F5B58",
"a  c #655947",
"s  c #615C57",
"d  c #625E5A",
"f  c #65615C",
"g  c #69645F",
"h  c #7B6251",
"j  c #6A6560",
"k  c #6F6A65",
"l  c #6F6D68",
"z  c #706B67",
"x  c #736E69",
"c  c #76726D",
"v  c #78736D",
"b  c #777470",
"n  c #7E7974",
"m  c #88704A",
"M  c #8D7254",
"N  c #8D775F",
"B  c #92775C",
"V  c #997F5F",
"C  c #937C63",
"Z  c #807C77",
"A  c #837D78",
"S  c #B4915F",
"D  c #9F8361",
"F  c #A68D6D",
"G  c #B3916B",
"H  c #AC9273",
"J  c #B09871",
"K  c #BA9972",
"L  c #B39A7B",
"P  c #B99C79",
"I  c #BFA073",
"U  c #C0986C",
"Y  c #C09D71",
"T  c #CCA16B",
"R  c #D6A769",
"E  c #D7AC6B",
"W  c #DFAF6B",
"Q  c #C0A476",
"!  c #C8A576",
"~  c #CBA77B",
"^  c #D8AE71",
"/  c #D5AE7C",
"(  c #D7B073",
")  c #DFB97B",
"_  c #E4B978",
"`  c #8B8580",
"'  c #918B85",
"]  c #948D89",
"[  c #97918C",
"{  c #A39C96",
"}  c #BFA98D",
"|  c #C4AC80",
" . c #CBAC85",
".. c #CDB38D",
"X. c #D7B385",
"o. c #D7B88D",
"O. c #DCBB88",
"+. c #C6B395",
"@. c #C6B895",
"#. c #D1B292",
"$. c #D4B991",
"%. c #E3BB85",
"&. c #E0BC89",
"*. c #E1BF95",
"=. c #DFC492",
"-. c #F5CB88",
";. c #F6D28E",
":. c #E7C99C",
">. c #EDCC9C",
",. c #F4D097",
"<. c #F7D990",
"1. c #F6D99D",
"2. c #F9DA9A",
"3. c #FAE69A",
"4. c #DBC4A6",
"5. c #DDCBA1",
"6. c #DECFA9",
"7. c #E6CEA8",
"8. c #EED3A8",
"9. c #F0D9A7",
"0. c #F9DDA0",
"q. c #F8DEA9",
"w. c #E7D7B6",
"e. c #EEDDB4",
"r. c #FFF2AF",
"t. c #F2E7B8",
"y. c #F7E8BB",
"u. c #FEF0BD",
"i. c #FDF5C0",
"p. c #FCF5CD",
"a. c #FBF3D1",
/* pixels */
"                                                                        ",
"                                                                        ",
"                                                                        ",
"                        7.              +.                              ",
"                        e.              N                               ",
"                      w.+.              *.4                             ",
"                  #.a.6.                  X.M                           ",
"              :.e.p.4.                      ~ / V                       ",
"              p.9.B                           G >.L                     ",
"            a.u.h                               P &.B                   ",
"            8...            u > < 7 r             $.F                   ",
"            8.H         q t 3 8 , q 3 *           o.P                   ",
"          G 2.|         d z 1 v 0 0 < & %         :.K                   ",
"            -.Q       i w i s g y w n k : O     / ,.Y                   ",
"            %.E m     i w w x 3 n u d j - :     ^ q.K                   ",
"            T W ( J ; 8 k f s f j j f < 0 : C U _ 3.H                   ",
"              ) <.| I 8 p k v ' ` d A y p r O.:.u.u.                    ",
"              D 1.5.~ f r i v ] { l c d 0 q :.t.r.O.                    ",
"                ! 1.@.9 3 f f c z c 1 1 # a <.;.                        ",
"                   .K , 3 g p l k z 0 1 $ S R 2                         ",
"                      3 0 g j l i w u 8 % 5 @                           ",
"                      8 f l r f f y i < %                               ",
"                        d b p w y r w > +                               ",
"                        1 y f c y d , = o                               ",
"                        < > O < 7 o & 3 % .                             ",
"                    8 t < 7 y r t = r : * = X                 .         ",
"                  7 < 8 3 1 w u i > < & * O & O .                       ",
"                t w ; r 3 1 6 f d - = = = % : > *                       ",
"                0 r 6 r , < 7 9 3 1 > * - * < : 1 X                     ",
"                f i 6 i 0 r 8 8 3 ; = * - : > , >                       ",
"                r 0 8 p i r 8 8 < = = - : % < 6 ;                       ",
"                n 8 w t i y 8 p i > : > > = = - <                       ",
"                [ z d u w u y > < , < 6 , > = < 6                       ",
"                    r x i w t 3 < , 6 > : : 6                           ",
"                        i w u 0 6 7 7 > :                               ",
"                                                                        "
};
