/* XPM */
static char *_db1a25fb5fb472391711525c5bc1f58MwYdOITgcuQhGFqV[] = {
/* columns rows colors chars-per-pixel */
"36 36 114 2 ",
"   c None",
".  c #241D1A",
"X  c #292624",
"o  c #2E2A26",
"O  c #332D26",
"+  c #332E29",
"@  c #333027",
"#  c #36312B",
"$  c #3B342D",
"%  c #3D382E",
"&  c #3D3630",
"*  c #3E3932",
"=  c #41372E",
"-  c #43382F",
";  c #433730",
":  c #443C33",
">  c #493E35",
",  c #463D38",
"<  c #4C3F38",
"1  c #464135",
"2  c #4A4236",
"3  c #464139",
"4  c #4C443A",
"5  c #4E483B",
"6  c #504137",
"7  c #51453B",
"8  c #544A3D",
"9  c #5A4D3F",
"0  c #4F4640",
"q  c #554C41",
"w  c #5D4E42",
"e  c #594F45",
"r  c #5B4F45",
"t  c #5A4E41",
"y  c #565043",
"u  c #5B5140",
"i  c #5B5041",
"p  c #585142",
"a  c #595143",
"s  c #5D5341",
"d  c #5E5240",
"f  c #5C5143",
"g  c #5F5143",
"h  c #5C5342",
"j  c #5D5343",
"k  c #595144",
"l  c #5C5244",
"z  c #5D5245",
"x  c #5C5446",
"c  c #5D5647",
"v  c #5C5245",
"b  c #5B5348",
"n  c #5E5549",
"m  c #5F544B",
"M  c #5D5649",
"N  c #625443",
"B  c #605445",
"V  c #605645",
"C  c #635745",
"Z  c #605746",
"A  c #605747",
"S  c #635646",
"D  c #635746",
"F  c #645746",
"G  c #615545",
"H  c #605846",
"J  c #605847",
"K  c #615549",
"L  c #625648",
"P  c #625748",
"I  c #635749",
"U  c #63574B",
"Y  c #66574A",
"T  c #62574F",
"R  c #61564B",
"E  c #625948",
"W  c #625949",
"Q  c #625A49",
"!  c #625B4B",
"~  c #645949",
"^  c #665949",
"/  c #675A48",
"(  c #645B4A",
")  c #63584C",
"_  c #625A4C",
"`  c #645A4E",
"'  c #665C4D",
"]  c #6C5E4A",
"[  c #6A5E4C",
"{  c #6B5F4F",
"}  c #6D5E4E",
"|  c #6C5F4F",
" . c #695B49",
".. c #685D50",
"X. c #685E52",
"o. c #685E50",
"O. c #69604F",
"+. c #72624F",
"@. c #73624E",
"#. c #6D6150",
"$. c #6E6152",
"%. c #6C6255",
"&. c #6D6357",
"*. c #706152",
"=. c #716152",
"-. c #726355",
";. c #706356",
":. c #726356",
">. c #716655",
",. c #726151",
"<. c #786B55",
"1. c #746659",
"2. c #736958",
"3. c #816D59",
/* pixels */
"                                    D                                   ",
"                            l o.o.$.C U Q D t                           ",
"                      5 : : 3 5 4 , 1 2 5 q e y p                       ",
"                  2 5 2 # o                   4 5 4 :                   ",
"                q : > -                           X # : :               ",
"            x x &   : 7 $                             o 4 3             ",
"          m q $     : 7 : 4                             & 4 4           ",
"        %.k o       7 : O > h                         8 $ $ 4 e         ",
"      _ _ #           2     4 Y                   ] 9 : > $ O 4 y       ",
"      Q 4             h 8     r C             / N : + : 7 #     J 8     ",
"    J 2               ^ h       2 2       D Y 5 O       q       1 8     ",
"    x #               U h         > : - : : #         [ 4         5 5   ",
"  ;.8                 ` t         7 2 7 ;           <.t           3 q   ",
"  >.:                   7     3.| 2 $ < 5           :.&             m l ",
"  |                     < < w q *       2 9       :.<               J s ",
"Q p                   2 ; $ O             : 2     2 .               t q ",
"4 >               8 : : = #                 + > 4 $                 y p ",
": ;           1.t - o   , >                   4 6 -                   O.",
"4 $       C *.k +       g t                   7 > 2                   ;.",
"0 *     q 4 $           U Y                   7 + - w                 U ",
"2 3 7 5 4 #               8                 *.>     : $.            p 5 ",
"% 2 4 4 4 4 w *.:.U       :                 Y         : +.8         ^ 5 ",
"  ,         $ : 7 q 7 : & $ - 4 ^         > :           $ w $       b & ",
"  5                     ; - = : 5 l q : - : 2 g           : 2 @     5 # ",
"  , 2                     9 5         $ : : 4 7 r *.+.D q 4 7 < $ & &   ",
"    p                     p q         5 , &       & : 4 5 < 2 6 6 0 +   ",
"    q q                     q         U &                       q 5     ",
"      m 9                   l       ,.7                         5 #     ",
"      : J 2                 D        .O                       N $       ",
"        2 5                 7 2    .5                       ' 2         ",
"          % p x             > :   8 +                     ' 5           ",
"            : ' m             > 2 $                     l 5             ",
"              3 m D           4 &                   &.k %               ",
"                  2 q 5 :     > *               J m q *                 ",
"                    # 4 4 1 2 1 3 b m q 5 0 M M 5 o                     ",
"                          $ & : 4 5 4 1 1 : $                           "
};
