/* XPM */
static char *_3ea0f517f1b4215f0d07ac56d88ebfcWVy5EwkEtMuASwLD[] = {
/* columns rows colors chars-per-pixel */
"36 36 152 2 ",
"   c None",
".  c #050611",
"X  c #090711",
"o  c #050912",
"O  c #0D0B12",
"+  c #140711",
"@  c #1E0611",
"#  c #130D12",
"$  c #1B0C12",
"%  c #171012",
"&  c #1D1112",
"*  c #3E0D0F",
"=  c #3C140F",
"-  c #250711",
";  c #2C0511",
":  c #240B12",
">  c #2C0B11",
",  c #320611",
"<  c #390710",
"1  c #340A11",
"2  c #3B0A11",
"3  c #241311",
"4  c #2B1210",
"5  c #2E1914",
"6  c #321210",
"7  c #3B1211",
"8  c #341B12",
"9  c #3C1E12",
"0  c #3A2114",
"q  c #3D2318",
"w  c #440F0F",
"e  c #45140F",
"r  c #4D160E",
"t  c #4B180E",
"y  c #4E180E",
"u  c #4F180E",
"i  c #4F180E",
"p  c #50170E",
"a  c #51170E",
"s  c #52170E",
"d  c #55160E",
"f  c #52160E",
"g  c #50180E",
"h  c #51180E",
"j  c #51190E",
"k  c #52180E",
"l  c #53180E",
"z  c #53190E",
"x  c #511A0E",
"c  c #521B0E",
"v  c #54180D",
"b  c #54180E",
"n  c #55190E",
"m  c #56180E",
"M  c #56190E",
"N  c #57190E",
"B  c #521C0E",
"V  c #561F0E",
"C  c #52190E",
"Z  c #591A0D",
"A  c #59190E",
"S  c #591E0E",
"D  c #420C11",
"F  c #430E10",
"G  c #430F10",
"H  c #420E10",
"J  c #441610",
"K  c #441211",
"L  c #4A1714",
"P  c #4D1610",
"I  c #421D11",
"U  c #591F11",
"Y  c #45220F",
"T  c #4B240F",
"R  c #53270F",
"E  c #55230D",
"W  c #5B220F",
"Q  c #5E220E",
"!  c #58250F",
"~  c #5D260E",
"^  c #5E270E",
"/  c #5C230E",
"(  c #53280F",
")  c #57290F",
"_  c #58280F",
"`  c #5A2A0F",
"'  c #402110",
"]  c #442211",
"[  c #492917",
"{  c #412418",
"}  c #532110",
"|  c #5A2416",
" . c #512913",
".. c #542D19",
"X. c #592E19",
"o. c #612A0E",
"O. c #622A0E",
"+. c #622B0E",
"@. c #652A0E",
"#. c #622C0C",
"$. c #632C0C",
"%. c #632D0D",
"&. c #642D0E",
"*. c #652E0E",
"=. c #652F0E",
"-. c #662F0E",
";. c #672F0E",
":. c #642D0D",
">. c #6A2F0E",
",. c #67300E",
"<. c #66300E",
"1. c #67300E",
"2. c #68310E",
"3. c #68310F",
"4. c #69300E",
"5. c #6A310E",
"6. c #69320E",
"7. c #6A320E",
"8. c #6A330E",
"9. c #6D330E",
"0. c #6F330E",
"q. c #6B320E",
"w. c #76350D",
"e. c #74340E",
"r. c #76360E",
"t. c #72350E",
"y. c #78370D",
"u. c #642F10",
"i. c #6A3210",
"p. c #6E3412",
"a. c #61341A",
"s. c #6E331A",
"d. c #6D381B",
"f. c #713714",
"g. c #793716",
"h. c #733916",
"j. c #7A3B15",
"k. c #773C1B",
"l. c #7C3E1C",
"z. c #7C3F1C",
"x. c #7D4019",
"c. c #7D401C",
"v. c #81421C",
"b. c #84441D",
"n. c #85441D",
"m. c #84441C",
"M. c #89471F",
"N. c #89471E",
"B. c #87491E",
"V. c #8C491E",
"C. c #934B1F",
"Z. c #944C20",
/* pixels */
"                                                                        ",
"                                                                        ",
"                                                                        ",
"                                                                        ",
"    b.                                            3.                    ",
"    b.b.                    3.;.%.              %.%.                    ",
"    b.b.M.      r i i     O.3.3.              3.%.9.                    ",
"    b.b.f.  x u i i i i i u x 3.              } B u i i                 ",
"    x.i.$.%.9.O.i x x x x i i B       2 1 2 2 , i i p P i i i r         ",
"    3.%.3.3.%.O.w 2 w e e f i r i r 2 1 2 1 2 2 1 2 F v x i i O.;.3.    ",
"3.%.3.3.W R e - # > , $ O : r v i i f e 1 2 1 : 1 > $ 4 7 r x %.;.%.3.v.",
"3.x x w.6 O O O : 1 $ 3 # # $ 3 r i i d 4 $ > & # # O $ - : 5 w.0.3.%.$.",
"O.i x 5 % # # # 2 : O 3.5 # # O : J i u 7 # 4 v x u & > 2 $ # & = @.>.3.",
"i e $ # # # # * 2 # $ %.3.O # O O O e u 2 $ O 7 i x 1 2 $ # # # # 8 ! ;.",
"f = O # # # $ 1 # O 3 0.;.R O 7 4 $ # 2 1 O # O i 2 2 : # # # # O o ; e ",
"f 4 O # # O : > # O 8 0.~ i e d v v u u K : $ $ 2 , $ # # # # # = : 7 1 ",
"u f # o 3 : > $ O . 9 / r i f f x i i e 2 2 > : , # O # # # 3 e v v 1 1 ",
"u O.! Y t d f * > 4 e i i x v L K i f F 2 , L 2 : # # % # 6 x Z e 6 - O ",
",.%.2.w.v u i 2 2 f f i i D 3 : 1 1 $ $ $ ; x.| 1 $ # O - e Z 6 $ X O $ ",
"%.3.T 5 = e 1 2 2 e e r , $ # O 1 2 # # # - c.V.2 1 # # , 2 : $ O % # # ",
"1.f.z.5 O O # # : 2 1 > O % # $ 2 1 % # # % N.b.z.; O O 2 2 # O # O % # ",
"h.N.C...O # # # # , 2 - # # O : 2 2 - # X 5 V.m.v.E I 8 W x e = 6 : & ;.",
". k.C.8 O # # O : > D : # # % $ 2 2 : . 3  .x.$.3.;.0.0.,.,.%.~ f d f r ",
"# & Z.3 # # # % 1 2 , $ # # # O - 2 , I ` t.%.3.2.t.$.p.p.%.t.@.f y y y ",
"# # 0 # # # # # $ 2 $ # # # # # > 1 e %.9.3.u.3.i : p.v.Z.0 # 5 4 e y y ",
"# # O O # 5 ` # > , 1 # # # # # # # i B / ! , # $ O q b.N.J > - O @ , r ",
"# O O & I y.T O > 2 # # O # # # $ v i r w - O % # # X s.b.1 2 D $ O # % ",
"r e - T t.>.9 O $ > @ [ ..o # $ 4 v f e $ O $ # % # $ * k.; # - # # # # ",
"i i r c 3.t.5 O # O o X.Z.3 O $ F v 7 & O # # # # : > 2 ; # # # $ # # # ",
"i i i y ^ q.& # # O O d.N.k.# + 1 2 $ o O # # # o : 2 , : O # O # # # O ",
"$ w v y r y # % # 0 O c.b.Z.] e ;.%. .T 9 # # . a.7 2 $ O > > > % # O I ",
"* ; 1 r y y = X 3 Z.& & N.p.0.0.3.,.%.t.w.: # c.M.K 2 # & 1 2 2 : % _ ;.",
"# $ O , i f r + 0 C.v.$.0.$.#.,.<.3.;.S ~ f f U B.+ - 5 ,.# : * 1 0.%.0.",
"# # # O $ 2 1 ; I g.$.%.$.9.j.u.Y # 3 3 7 r i r K 4 0 w.) O # : e 3.#.x ",
"# O # # O > , K w B 3.c g.m.Z.{ o : , : - 1 1 2 , w 3.0.T X # : o.q.| < ",
"O T # # # 1 2 i f i i 3 & N.V.5 O O 1 2 2 : O > 1 , e ,.8 O O 6 Z ;.I O "
};
