/* XPM */
static char *f2510c5be8394dd4a15fab10b077c587YfQUGirbPB57TFCA[] = {
/* columns rows colors chars-per-pixel */
"36 36 210 2 ",
"   c None",
".  c #2C3037",
"X  c #2D3137",
"o  c #2D3238",
"O  c #2D3239",
"+  c #2E343A",
"@  c #2F343B",
"#  c #2F353C",
"$  c #2F363D",
"%  c #30353B",
"&  c #30353C",
"*  c #30353D",
"=  c #30363D",
"-  c #31363D",
";  c #31373D",
":  c #30363E",
">  c #31363E",
",  c #30373E",
"<  c #31373E",
"1  c #30363F",
"2  c #31363F",
"3  c #31373F",
"4  c #32363E",
"5  c #32373E",
"6  c #32373F",
"7  c #32383F",
"8  c #303640",
"9  c #303741",
"0  c #313840",
"q  c #313841",
"w  c #323840",
"e  c #333840",
"r  c #323940",
"t  c #333940",
"y  c #323941",
"u  c #333941",
"i  c #333A41",
"p  c #313842",
"a  c #323842",
"s  c #323942",
"d  c #333A42",
"f  c #343841",
"g  c #343941",
"h  c #343A42",
"j  c #353A42",
"k  c #343B42",
"l  c #343A43",
"z  c #343B43",
"x  c #353B43",
"c  c #333B46",
"v  c #343B44",
"b  c #353B44",
"n  c #363B44",
"m  c #353C44",
"M  c #353D45",
"N  c #363D45",
"B  c #363D46",
"V  c #373D47",
"C  c #373E46",
"Z  c #363E47",
"A  c #373E47",
"S  c #353D48",
"D  c #363E48",
"F  c #383F48",
"G  c #383E49",
"H  c #383F49",
"J  c #384049",
"K  c #39404A",
"L  c #39414A",
"P  c #39414B",
"I  c #3A404A",
"U  c #3A414A",
"Y  c #3A404B",
"T  c #3A414B",
"R  c #3A424B",
"E  c #3A414C",
"W  c #3B424C",
"Q  c #3A424D",
"!  c #3B424D",
"~  c #3B434D",
"^  c #3B424E",
"/  c #3B434E",
"(  c #3C434D",
")  c #3C444E",
"_  c #3C444F",
"`  c #3D444F",
"'  c #3D454F",
"]  c #3D4550",
"[  c #3E4550",
"{  c #3E4651",
"}  c #3F4651",
"|  c #3F4751",
" . c #3E4652",
".. c #3F4652",
"X. c #3F4752",
"o. c #3F4753",
"O. c #404853",
"+. c #404854",
"@. c #404954",
"#. c #414954",
"$. c #404955",
"%. c #414955",
"&. c #424855",
"*. c #414956",
"=. c #414A56",
"-. c #424A56",
";. c #424B57",
":. c #434B57",
">. c #424C57",
",. c #434C57",
"<. c #434C58",
"1. c #434C59",
"2. c #434D59",
"3. c #434D5A",
"4. c #444C58",
"5. c #444C59",
"6. c #454C59",
"7. c #444D59",
"8. c #444D5A",
"9. c #454D5A",
"0. c #454D5B",
"q. c #464D5B",
"w. c #444E5A",
"e. c #454E5A",
"r. c #454F5A",
"t. c #444E5B",
"y. c #454E5B",
"u. c #464F5B",
"i. c #474D5C",
"p. c #454F5C",
"a. c #464F5C",
"s. c #474F5C",
"d. c #464F5D",
"f. c #45505D",
"g. c #46505C",
"h. c #46505D",
"j. c #47505D",
"k. c #46515D",
"l. c #47515D",
"z. c #47515E",
"x. c #47505F",
"c. c #47525E",
"v. c #47525F",
"b. c #48515E",
"n. c #48515F",
"m. c #48525F",
"M. c #49525F",
"N. c #485260",
"B. c #495260",
"V. c #485360",
"C. c #495360",
"Z. c #495361",
"A. c #4A5260",
"S. c #4B5261",
"D. c #4A5361",
"F. c #495362",
"G. c #4A5362",
"H. c #4A5461",
"J. c #495462",
"K. c #4A5462",
"L. c #4B5462",
"P. c #4B5562",
"I. c #4A5463",
"U. c #4B5463",
"Y. c #4A5563",
"T. c #4B5563",
"R. c #4A5464",
"E. c #4B5564",
"W. c #4B5664",
"Q. c #4C5564",
"!. c #4C5664",
"~. c #4C5665",
"^. c #4D5665",
"/. c #4C5765",
"(. c #4D5765",
"). c #4D5766",
"_. c #4D5767",
"`. c #4D5866",
"'. c #4D5867",
"]. c #4E5867",
"[. c #4E5967",
"{. c #4D5868",
"}. c #4E5868",
"|. c #4F5968",
" X c #4F5A6A",
".X c #535C6D",
"XX c #535D6E",
"oX c #555F70",
"OX c #586072",
"+X c #596275",
"@X c #5A6375",
"#X c #5A6376",
"$X c #5B6376",
"%X c #5C6578",
"&X c #5D6679",
"*X c #5E667A",
"=X c #616A7E",
"-X c #636C82",
";X c #646D83",
":X c #677086",
">X c #687087",
",X c #687188",
"<X c #697288",
"1X c #6A7289",
"2X c #6A7389",
"3X c #6A728A",
"4X c #6E768E",
"5X c #6F778F",
"6X c #717991",
"7X c #757D97",
/* pixels */
"                                                                        ",
"                                                                        ",
"                                                  j.Q.                  ",
"                                                < O..X                  ",
"                                              < b *.`.                  ",
"                                            < Q h.M.W.                  ",
"                                            < o.Q.W.K.                  ",
"                                            @ o.K.K.K.                  ",
"                                            X ) Q.K.                    ",
"                              K.K.K.K.K.  h.) *.W.K.                    ",
"                            Q.Q.W.W.Q./.Q.L.L.K.F.K.                    ",
"                            ( Q ~ 8.K.K.K.`.`.K.K.K.K.K.K.              ",
"                            < < 7 A Q I ) j.F.F.K.K.K.K.K.K.K.K.        ",
"                              f   < < % < b *.F.W.K.K.K.K.K.K.K.K.K.    ",
"                            OX8.<Xb     y X I F.W.F.K.K.K.K.K.K.K.K.    ",
"                      >X<X;X8.o.Q.y       < ) F.Q.F.  K.    K.K.K.      ",
"              :X=X-X$Xh.m.K.K.K.M.A       < ( F.Q.F.  K.                ",
"    7X6X%X$X%X`.h.h.V.K.K.L.`.K.F.*.y   y # ( F.Q.    K.    K.          ",
"  f F.OXK.h.h.K.W.K.K.K.K.Q A ,.L.F.  y y % ) K.W.          K.          ",
"  7 ~ Q.K.Q.K.h.V.t.y m f 7 i O.Q.K.    < C 8.K.F.          K.          ",
"  7 I K.K.g.) < # < y I I ~ W.K.K.K.    7 Q F.Q.K.          K.K.        ",
"  y < *.K.# @ I *.) 2.`.Q./.K.K.K.K.K.  < I F.Q.K.    %X%X%X#X$X<X      ",
"    < *.`.2.*.F.`.Q.W.F.K.K.K.K.K.K.K.  < I F.Q.K.    h.h.F.XXXXXX<X5X4X",
"<   7 *.Q.Q.Q.W.W.Q.F.M.m.h.M.K.K.K.K.  < I M.W.K.  K.Q.) y C M.h.Q.}.Q.",
"*.  7 o.K.K.L.h.8.g.o.% < < @ O.Q.K.K.  < I F.Q.K.  K.L.o.J < < 7 y ,.,.",
"j.  f < g.K.Q.I O @ @ J O.) ) 8.Q.K.K.f y *.F.W.K.  K.K.K.Q.) o.o.f @ O ",
"S.    7 h.Q.Q.h.2.,.*.F.Q.Q.`.W.K.K.F.f F F.Q.W.K.  K.K.K.K.Q.`.Q.8.*.,.",
"$X>X  7 h.L.K.K.L.`.L.K.K.K.K.K.K.K.F.f A M.Q.K.K.K.h.A A A F.M.F.W.`./.",
"<X%X  7 2.L.K.K.K.K.K.K.K.K.K.F.K.K.M.f F M.W.K.K.K.K.8.F < < < 7 *.g.h.",
"o.K.  < 7 K.K.K.K.K.K.K.K.K.K.F.*.m A 2.M.K.F.K.K.W.K.K.F.M.) o.A # X I ",
"9 L.O.< f K.K.K.K.K.R.W.W.W.W.Q y 7 A d.`.`.K.K.h.h.K.K.Q.`.Q.}.8.o.) *.",
"K.Q.  7 m L.K.K.F.K.*.b b b l y 9 y d.`.,.h.L.Q.) < *.Q.8.*.2..X2.I A A ",
"M.8.Q.) y 8.Q.`.A < 7 A y y 9 y 9 y o.o.f A 8.`.2.7 y ) m < Q M.I 7 y f ",
"7 A K.J 9 S F.O.o.I < Q A 9 p p y y y y 7 # A 8.Q.,.b < < f 8.O.y 7 y I ",
"y *.A < y l A < ) h.< < I ) S < I Q f < < f y 9 y I o.h.y < *.|.8.< y ) ",
"f d.# y 9 y 7 y y F.h.) < < 9 y 7 7 f y y y y y y 7 Q o.< 7 C `.I < y 7 "
};
