/* XPM */
static char *_7e2ae44301a4ae4cc453abf14abcdf8DdriUmJBGjtGxO1r[] = {
/* columns rows colors chars-per-pixel */
"36 36 151 2 ",
"   c None",
".  c #4F2B15",
"X  c #512C16",
"o  c #512E19",
"O  c #53321D",
"+  c #553622",
"@  c #543927",
"#  c #5A3B26",
"$  c #553B29",
"%  c #5B3F2D",
"&  c #563F30",
"*  c #5D412E",
"=  c #574233",
"-  c #5A4434",
";  c #5E4837",
":  c #5A4739",
">  c #5D4A3B",
",  c #61422E",
"<  c #624532",
"1  c #644A36",
"2  c #634C3B",
"3  c #694E3A",
"4  c #69513D",
"5  c #5D4F41",
"6  c #5E5145",
"7  c #5E5449",
"8  c #614F41",
"9  c #635345",
"0  c #6A5443",
"q  c #6D5946",
"w  c #62564A",
"e  c #6B5749",
"r  c #635A4E",
"t  c #6D5C4D",
"y  c #715E4E",
"u  c #645C52",
"i  c #6C5E52",
"p  c #656156",
"a  c #6B6256",
"s  c #676359",
"d  c #6B655B",
"f  c #6D695E",
"g  c #736351",
"h  c #706458",
"j  c #736A5F",
"k  c #7A6D5C",
"l  c #7B715E",
"z  c #6E6A61",
"x  c #736D63",
"c  c #796E62",
"v  c #777166",
"b  c #7B7265",
"n  c #76726A",
"m  c #7A756A",
"M  c #7D796E",
"N  c #7E7C72",
"B  c #807366",
"V  c #84766A",
"C  c #837B6E",
"Z  c #807F75",
"A  c #817F75",
"S  c #807E75",
"D  c #827F75",
"F  c #807C74",
"G  c #817D72",
"H  c #807F78",
"J  c #838075",
"K  c #838175",
"L  c #838176",
"P  c #838177",
"I  c #828077",
"U  c #848176",
"Y  c #848277",
"T  c #858377",
"R  c #868477",
"E  c #878476",
"W  c #888276",
"Q  c #888476",
"!  c #828178",
"~  c #818279",
"^  c #838278",
"/  c #858378",
"(  c #858379",
")  c #868379",
"_  c #85837A",
"`  c #84837B",
"'  c #858479",
"]  c #868479",
"[  c #868579",
"{  c #878579",
"}  c #85857A",
"|  c #87857A",
" . c #86867B",
".. c #87867B",
"X. c #85847C",
"o. c #86857D",
"O. c #87877D",
"+. c #87877E",
"@. c #86847A",
"#. c #888579",
"$. c #88867B",
"%. c #8A877B",
"&. c #89867C",
"*. c #88877D",
"=. c #8A877D",
"-. c #8B877D",
";. c #8A867A",
":. c #87887B",
">. c #87887C",
",. c #87887D",
"<. c #87887E",
"1. c #87897E",
"2. c #87887F",
"3. c #88887C",
"4. c #89887C",
"5. c #88887D",
"6. c #88887E",
"7. c #8B887E",
"8. c #898A7E",
"9. c #8C897E",
"0. c #8C897F",
"q. c #8B897C",
"w. c #8A8B81",
"e. c #8A8B82",
"r. c #8C8B81",
"t. c #8C8B82",
"y. c #8A8C81",
"u. c #8B8C81",
"i. c #8B8C82",
"p. c #8C8C82",
"a. c #8C8D82",
"s. c #8E8C82",
"d. c #8F8D82",
"f. c #8C8F82",
"g. c #8C8D84",
"h. c #8E8E84",
"j. c #8E8F84",
"k. c #8E8F85",
"l. c #8F8F85",
"z. c #8D8F87",
"x. c #8E8C81",
"c. c #918D83",
"v. c #928E85",
"b. c #8F9086",
"n. c #929187",
"m. c #939187",
"M. c #909189",
"N. c #92938B",
"B. c #93958D",
"V. c #949289",
"C. c #98948C",
/* pixels */
"                0 y y t y t t t t t t y t t t y t e t <                 ",
"              4 ;.B.B.b.f.2.O.O.2.2.2.2.o.w.o.&.&.&.z.c <               ",
"            0 / ;.:.| ;.| / | | | | | R o.t.s.H / / ! r.c <             ",
"          3 / / I I | I N N N N Z N N I o.H w.H / / / ! r.c <           ",
"          3 O./ I :.I r - 1 ; 3 9 > 3 2 2 8 1 2 x | / T y.c *           ",
"          3 &./ | I w 1 0 t a a y a i t i 9 0 8 - j / T y.c ,           ",
"          3 &.T 2.b 3 e x v v v v v v v c c x c 3 e G :.s.b ,           ",
"          3 9.T r.k 1 h m v v n v m M m n n m M t q C #.f.B ,           ",
"          3 r./ y.k 0 j M n c n m m m m m b v M y q K :.b.b ,           ",
"          3 7.| y.k 0 x N M m m C M M m M b b N y q C :.b.b ,           ",
"          3 s.| 7.k q c N M M M M M M M M n v M i q K :.b.B ,           ",
"          3 c.#.b.k q v N M N N C C N M M V m N y q C :.b.V ,           ",
"          3 v.;.8.l 0 b | M v m N G I I G D G D t y W #.n.V ,           ",
"          3 v.s.q.Q g g c a e i a h c c c c c j t V 9.Q n.V <           ",
"          3 C.v.;.f.;.g 1 1 3 1 1 1 4 4 4 4 4 3 V V.9.Q m.V <           ",
"          1 c.v.;.Q 8.q.W Q Q ;.#.Q Q R Q Q Q ;.f.q.Q q.m.B #           ",
"          , M v.c.q.#.;.-.-.;.-.9.;.q.q.-.9.9.9.;.;.-.v.G > .           ",
"          , v F V.C.C.C.V.m.v.c.m.c.n.V.m.v.v.v.v.V.m.F a 1 O           ",
"          % n o.n m n n n x x x x z c M M n x x x x x v z ; o           ",
"          # M n f x x f f j j z f z f z z f f f f f a z m e X           ",
"          + M h d d z f z d d z d d f d d h f d x z z s m a o           ",
"          + n d a z f 8 & & % & % - = % - - % % u n x a n u O           ",
"          + v d d d 8 & 5 7 9 9 w w w w 9 w w w 2 i z d z e X           ",
"          + x s z w & > u i u u u u i p a a u s > 5 a z z e X           ",
"          O x d z 8 & 6 u u u r u u u u u r u p 5 : i z z w o           ",
"          O x a z w : 6 u u r u u u u r w r u p > > i d z w o           ",
"          o z p s 6 : 5 w r u u w r r w w w r u 8 : i s z 9 o           ",
"          + f p z 6 = 5 w w u w r r r w w r 7 r > : u s z 9 o           ",
"          O d p z 5 & 5 w 7 w r r r u w 7 7 r u > = u p z w .           ",
"          O d a i w : > 6 6 w 7 w w w w 7 7 7 7 : > u p z 9 o           ",
"          O f u u p r : : : > > : : : : > : - - 6 u p r f 9 X           ",
"          O d d u r d u 2 > 1 > 2 2 2 2 2 > 2 2 u p u u d 9 X           ",
"          O a d d p u p s s s z z z z z z z s f p r p r f 6 .           ",
"            @ p f s p 7 r u r u p 7 u p s p r 7 r p p s 4 O             ",
"              @ s s p p p p p p p p p p p p p p p p s 7 O               ",
"                + $ @ @ @ @ + = @ @ @ @ = @ = @ @ @ = o                 "
};
